<?xml version="1.0" encoding="UTF-8" standalone="no"?>
<!DOCTYPE svg PUBLIC "-//W3C//DTD SVG 1.1//EN" "http://www.w3.org/Graphics/SVG/1.1/DTD/svg11.dtd">
<svg width="100%" height="100%" viewBox="0 0 213 213" version="1.1" xmlns="http://www.w3.org/2000/svg" xmlns:xlink="http://www.w3.org/1999/xlink" xml:space="preserve" xmlns:serif="http://www.serif.com/" style="fill-rule:evenodd;clip-rule:evenodd;stroke-linejoin:round;stroke-miterlimit:2;">
    <g transform="matrix(1,0,0,1,-560.152526,-2197.379879)">
        <g transform="matrix(0.227965,0,0,0.227965,666.451738,2303.645571)">
            <g transform="matrix(1,0,0,1,-466.2965,-466.149458)">
                <clipPath id="_clip1">
                    <rect x="0" y="0" width="932.593" height="932.299"/>
                </clipPath>
                <g clip-path="url(#_clip1)">
                    <g id="UDT3VG.tif" transform="matrix(4.166667,0,0,4.166667,0,0)">
                        <g transform="matrix(1,0,0,1,-146.55999,-31.93053)">
                            <path d="M150.666,255.682C147.352,252.714 146.324,249.067 146.604,244.626C146.931,239.004 146.934,233.368 146.612,227.746C146.418,224.051 147.541,222.899 151.313,222.951C166.216,223.157 181.124,222.9 196.027,223.096C202.488,223.164 208.838,221.395 214.333,217.996C246.664,198.936 279.048,179.968 311.487,161.092C315.47,158.683 320.023,157.376 324.677,157.304C339.912,157.209 355.147,157.271 370.382,157.274L370.382,197.035C368.595,198.636 366.38,198.417 364.245,198.422C352.652,198.449 341.058,198.339 329.466,198.463C320.652,198.558 312.802,195.555 305.697,190.846C298.355,185.98 291.653,185.8 284.774,191.409C282.991,192.863 280.784,193.766 278.867,195.07C275.227,197.545 275.237,199.053 278.869,201.744C279.934,202.533 281.102,203.17 282.236,203.854C289.611,208.299 297.119,212.518 304.487,216.978C309.456,220.028 315.191,221.603 321.02,221.517C335.262,221.394 349.506,221.46 363.749,221.494C366.036,221.499 368.435,221.163 370.382,222.879L370.382,250.712C369.924,253.237 367.936,255.224 365.411,255.682L150.666,255.682Z" style="fill:none;fill-rule:nonzero;"/>
                        </g>
                        <g transform="matrix(1,0,0,1,-146.55999,-31.93053)">
                            <path d="M370.382,64.829C352.5,64.807 334.617,64.758 316.735,64.78C312.316,64.786 308.327,66.45 304.59,68.635C271.762,87.825 238.947,107.039 206.146,126.275C201.594,129.012 196.381,130.456 191.069,130.452C177.655,130.439 164.239,130.354 150.827,130.516C147.564,130.555 146.564,129.564 146.621,126.303C146.804,115.709 146.69,105.109 146.688,94.512C146.688,92.662 146.47,90.707 149.287,90.785C164.822,91.211 180.388,89.832 195.9,91.543C201.691,92.182 206.554,95.281 211.151,98.368C218.397,103.234 225.072,103.519 232.128,98.28C234.765,96.322 237.887,95.031 240.664,93.242C244.286,90.909 244.258,87.744 240.563,85.549C230.896,79.809 221.207,74.103 211.445,68.528C206.977,65.969 201.898,64.671 196.751,64.772C181.516,64.928 166.278,64.722 151.044,64.903C147.5,64.946 146.499,63.817 146.62,60.387C146.858,53.607 146.635,46.812 146.708,40.023C146.764,34.788 149.427,32.049 154.635,32.046C223.86,32.017 293.085,31.978 362.31,31.931C366.025,31.924 367.913,34.227 370.382,36.002L370.382,64.829Z" style="fill:none;fill-rule:nonzero;"/>
                        </g>
                        <g transform="matrix(1,0,0,1,-146.55999,-31.93053)">
                            <path d="M370.382,130.435C352.659,130.405 334.935,130.378 317.212,130.354C312.721,130.494 308.35,131.844 304.562,134.261C271.723,153.455 238.898,172.674 206.087,191.918C201.531,194.648 196.313,196.079 191.001,196.055C177.748,196.019 164.494,195.956 151.243,196.106C147.984,196.143 146.518,195.51 146.607,191.807C146.848,181.709 146.848,171.606 146.606,161.499C146.517,157.801 147.969,157.166 151.233,157.197C166.307,157.339 181.385,157.112 196.458,157.332C202.268,157.4 207.982,155.836 212.949,152.818C244.784,134.199 276.597,115.54 308.387,96.842C314.307,93.163 321.174,91.291 328.142,91.455C342.213,91.851 356.301,91.632 370.382,91.668L370.382,130.435Z" style="fill:none;fill-rule:nonzero;"/>
                        </g>
                    </g>
                </g>
            </g>
        </g>
    </g>
</svg>
